HIERARCHY
ROOT pelvis
{
  OFFSET 53.7158 82.5031 -13.6175
  CHANNELS 6 Xposition Yposition Zposition Zrotation Xrotation Yrotation
  JOINT lfemur
  {
    OFFSET 9.91476 0 0
    CHANNELS 3 Zrotation Xrotation Yrotation
    JOINT ltibia
    {
      OFFSET 0.000851632 -0.000136701 -40.2914
      CHANNELS 3 Zrotation Xrotation Yrotation
      JOINT lfoot
      {
        OFFSET -0.000133128 -1.85254e-005 -36.8936
        CHANNELS 3 Zrotation Xrotation Yrotation
        End Site
        {
          OFFSET 11.5839 0 0
        }
      }
    }
  }
  JOINT spine
  {
    OFFSET -1.19492 15.6277 -4.07937
    CHANNELS 3 Zrotation Xrotation Yrotation
    JOINT spine2
    {
      OFFSET 0 0 14.53
      CHANNELS 3 Zrotation Xrotation Yrotation
      JOINT neck
      {
        OFFSET 0 14.5288 0
        CHANNELS 3 Zrotation Xrotation Yrotation
        JOINT head
        {
          OFFSET -2.40391 -0.849546 3.98929
          CHANNELS 3 Zrotation Xrotation Yrotation
          End Site
          {
            OFFSET 0 0 0
          }
        }
        JOINT rclavicle
        {
          OFFSET 0 0 0
          CHANNELS 3 Zrotation Xrotation Yrotation
          JOINT rhumerus
          {
            OFFSET 1.72796 -15.9462 3.44903
            CHANNELS 3 Zrotation Xrotation Yrotation
            JOINT rradius
            {
              OFFSET 0.000415608 0.00115974 -25.2001
              CHANNELS 3 Zrotation Xrotation Yrotation
              JOINT rhand
              {
                OFFSET -9.05072e-005 0 -21.7504
                CHANNELS 3 Zrotation Xrotation Yrotation
                End Site
                {
                  OFFSET 0 0 0
                }
              }
            }
          }
        }
        JOINT lclavicle
        {
          OFFSET 0 0 0
          CHANNELS 3 Zrotation Xrotation Yrotation
          JOINT lhumerus
          {
            OFFSET 1.16099 15.3544 5.94076
            CHANNELS 3 Zrotation Xrotation Yrotation
            JOINT lradius
            {
              OFFSET -0.000360948 -0.00153727 -25.2001
              CHANNELS 3 Zrotation Xrotation Yrotation
              JOINT lhand
              {
                OFFSET -1.64404e-005 -0.000133869 -21.7504
                CHANNELS 3 Zrotation Xrotation Yrotation
                End Site
                {
                  OFFSET 0 0 0
                }
              }
            }
          }
        }
      }
    }
  }
  JOINT rfemur
  {
    OFFSET -9.91476 0 0
    CHANNELS 3 Zrotation Xrotation Yrotation
    JOINT rtibia
    {
      OFFSET 0.0170252 0.0040913 -40.2913
      CHANNELS 3 Zrotation Xrotation Yrotation
      JOINT rfoot
      {
        OFFSET -0.000256556 0 -36.8936
        CHANNELS 3 Zrotation Xrotation Yrotation
        End Site
        {
          OFFSET 11.5839 0 0
        }
      }
    }
  }
}
MOTION
Frames:	19
Frame Time:	0.0333333
47.6657 82.1654 0.546036 -3.25473 -1.38202 14.8061 -84.7875 5.42054 -97.5131 0.00524933 0.00284365 27.2011 6.41047 -0.843549 -7.93766 -89.2801 0.409726 -87.5925 -107.213 84.9647 -163.576 -90 -3.50835e-015 -90 0.599225 5.66754 -0.568992 8.79361 20.1167 -3.04538 6.87823 -26.9842 19.6003 18.21 -18.0152 -43.2276 -5.65943 5.34556 11.0603 -2.7171 -16.3066 -0.763281 18.9439 20.5598 -3.56677 -56.0061 21.8682 -14.0971 1.47829 -0.819619 -8.71921 -83.054 -6.78022 -92.8843 -0.00526918 -0.00109348 10.0987 19.7274 2.76856 7.82526 
48.1388 82.1807 0.499862 -3.2208 -1.28836 11.8827 -84.0362 8.436 -97.3511 0.00476597 0.00237883 26.1645 5.31351 -0.676785 -7.78034 -89.2898 0.403496 -87.593 -106.993 84.9715 -163.785 -90 -3.50835e-015 -90 1.33596 5.85077 -0.36467 8.80973 20.2686 -3.07317 6.60942 -27.0796 19.5365 18.0417 -17.868 -43.2849 -5.54898 5.20899 10.8122 -2.49458 -16.251 -0.69846 17.5554 20.4197 -3.25254 -56.1438 22.363 -14.3161 1.58212 -0.417018 -8.66139 -83.4935 -8.92564 -92.8952 -0.00504866 -0.000921465 9.96844 20.6233 2.98078 8.00791 
48.6604 82.1753 0.389984 -3.26275 -1.13722 9.21766 -83.429 8.4307 -96.9143 0.00462066 0.00225048 24.9788 3.05394 -0.312859 -6.75835 -89.2784 0.414375 -87.6228 -107.455 85.0216 -163.344 -90 -3.50835e-015 -90 2.19373 6.10941 -0.181849 8.7861 20.3356 -3.07456 6.24814 -27.1475 19.224 18.3501 -17.9328 -42.8666 -5.68546 5.11541 10.3772 -2.279 -16.2075 -0.636469 17.285 20.1869 -3.56791 -57.2812 22.6684 -13.9042 1.53022 -0.224505 -8.58471 -83.972 -10.7566 -93.1865 -0.00490994 -0.00087124 10.0663 21.5541 3.1951 8.1615 
49.278 82.1637 0.18001 -3.45445 -0.807667 6.90974 -82.92 7.65812 -96.2813 0.00460006 0.00195812 23.1342 0.437642 0.0136822 -4.45795 -89.1751 0.428926 -87.708 -110.368 85.1167 -160.458 -90 -3.50835e-015 -90 2.95066 6.15377 -0.109211 8.68875 20.2397 -3.02643 5.91626 -27.2868 18.9013 18.7308 -18.0152 -42.3637 -6.10231 4.9332 10.143 -2.23266 -16.2176 -0.624018 17.7448 19.8438 -4.27465 -59.0361 22.3891 -12.8707 1.28309 -0.00133943 -8.54772 -84.5 -11.8323 -93.7041 -0.00484837 -0.000769398 10.0223 22.8629 3.56671 8.51215 
49.9976 82.1541 -0.0836728 -3.86843 -0.294442 5.123 -82.445 7.45885 -95.7348 0.00461499 0.00173239 20.9378 -2.15675 0.111145 -1.71304 -88.926 0.520838 -87.8519 -117.22 85.1796 -153.782 -90 -3.50835e-015 -90 3.55336 6.04444 -0.186297 8.55782 20.043 -2.95217 5.97348 -27.5897 18.8321 19.0474 -18.0056 -41.8352 -6.58189 4.61374 9.71093 -2.38253 -16.3775 -0.671935 18.2148 19.574 -4.70585 -60.6886 21.8713 -11.8106 1.02082 0.269797 -8.55689 -84.9443 -12.4075 -94.1475 -0.00475192 -0.00072716 9.30445 24.3842 4.09709 9.06704 
50.8596 82.1554 -0.319319 -4.21759 0.136321 3.68991 -82.4024 7.24902 -95.0032 0.00443494 0.0014147 18.6673 -3.80259 0.0472956 -0.0177993 -88.7074 0.627302 -87.9527 -123.002 85.1341 -148.207 -90 -3.50835e-015 -90 3.95558 6.19964 -0.439233 8.39884 20.0845 -2.90256 6.44293 -28.1326 19.0011 19.3152 -17.9449 -41.314 -7.16934 4.50057 9.00993 -2.54676 -16.3839 -0.718828 18.4642 19.2307 -4.78733 -61.8634 21.4651 -11.0699 0.804856 0.550932 -8.60274 -85.4831 -13.0156 -94.2471 -0.00457084 -0.000677912 8.08907 25.5239 4.61053 9.6595 
51.8281 82.1728 -0.575681 -4.29293 0.45671 2.00136 -82.9054 4.81603 -93.9148 0.00399068 0.00108753 16.2618 -5.02792 0.0147593 0.359793 -88.5426 0.546721 -87.9698 -126.274 84.98 -144.768 -90 -3.50835e-015 -90 4.14643 6.57051 -1.0363 8.35306 20.0762 -2.88538 5.86923 -28.5789 18.7269 19.6764 -18.0351 -40.883 -7.42335 4.76071 8.31669 -2.57074 -16.5098 -0.730988 18.4663 18.9716 -4.81133 -62.4396 21.3639 -10.7625 0.766705 0.611594 -8.71856 -86.2929 -13.7689 -94.5605 -0.00451107 -0.000748136 7.51146 26.2982 4.98696 10.0764 
52.8762 82.2209 -0.872976 -4.00607 0.656729 0.173129 -83.8257 0.854022 -92.3664 0.0034128 0.000895347 13.1935 -6.55751 -0.0430657 0.781486 -88.5914 0.388491 -87.905 -124.346 84.9357 -146.38 -90 -3.50835e-015 -90 4.36649 7.567 -1.90637 8.5221 20.2578 -2.96978 4.85663 -28.8511 18.1587 20.0991 -18.1696 -40.4331 -7.55442 4.88666 7.94848 -2.40615 -16.4084 -0.679806 18.4848 18.7153 -4.94711 -62.7069 21.4359 -10.6766 0.783861 0.557354 -8.81884 -87.46 -14.4316 -95.11 -0.0045574 -0.000178237 7.60158 27.1985 5.23848 10.1712 
53.9127 82.2918 -1.30319 -3.66049 1.00713 -1.2708 -84.7043 -2.98572 -91.2627 0.00299618 0.000494434 10.1601 -8.85928 -0.269647 2.02891 -88.6961 0.333588 -87.8456 -121.566 84.951 -149.052 -90 -3.50835e-015 -90 4.64782 8.73514 -2.93584 8.72098 20.4059 -3.06145 3.98922 -28.8536 17.4289 20.536 -18.3463 -40.0355 -7.42897 4.55582 7.98066 -2.23143 -16.2872 -0.626043 18.3161 18.6835 -5.13687 -62.6763 21.4804 -10.711 0.828268 0.383255 -8.88474 -88.7265 -14.8828 -95.8597 -0.00451321 7.03262e-005 7.50871 28.3189 5.40321 10.0055 
54.8859 82.3808 -1.80976 -3.45002 1.52966 -1.90569 -85.4756 -5.36899 -90.9896 0.00282114 0.000612644 7.90222 -10.9227 -0.601189 3.35343 -88.7281 0.451625 -87.8277 -120.884 84.9487 -149.971 -90 -3.50835e-015 -90 4.78769 9.63066 -3.85501 8.71266 20.433 -3.06245 3.49567 -28.7075 16.7415 20.8958 -18.5372 -39.7822 -7.08614 3.97482 7.99169 -2.34924 -16.2431 -0.65748 17.8384 18.9345 -5.16166 -62.3475 21.3681 -10.8057 0.882799 0.0921474 -8.94856 -89.745 -14.1787 -96.677 -0.00440247 -0.00124523 7.2443 28.4928 5.2263 9.62027 
55.7702 82.4802 -2.26804 -3.3051 1.92972 -2.03437 -86.2604 -6.14421 -90.8734 0.00264478 0.000413692 6.11556 -11.586 -0.83623 4.30018 -88.6938 0.576308 -87.8088 -121.487 84.876 -149.617 -90 -3.50835e-015 -90 4.54623 10.0048 -4.40262 8.48636 20.3652 -2.97237 3.15025 -28.5745 16.2784 20.8405 -18.5946 -39.9478 -6.60769 3.3688 8.01124 -2.72497 -16.2619 -0.763581 17.4039 19.2199 -5.20247 -62.2904 21.043 -10.6777 0.929841 -0.146784 -9.14915 -90.2495 -11.3335 -97.4915 -0.00437177 -0.00148799 7.95599 25.822 4.27858 8.86988 
56.493 82.5638 -2.5701 -3.30137 1.99319 -2.24087 -86.8098 -6.52607 -90.2825 0.00243201 0.000291497 4.36755 -11.5597 -0.975219 4.98865 -88.6632 0.561848 -87.74 -121.273 84.7264 -149.799 -90 -3.50835e-015 -90 4.02143 10.1687 -4.39706 8.37971 20.3828 -2.93696 3.10253 -28.6522 16.3296 20.5372 -18.5805 -40.3794 -6.63451 2.85366 7.99987 -3.07474 -16.1441 -0.855677 17.1843 19.2946 -5.0402 -62.3991 21.1469 -10.6784 0.931184 -0.416177 -9.14813 -89.9706 -6.42492 -98.203 -0.00461981 -0.000753531 10.2194 20.1537 2.76225 7.61827 
57.0268 82.6254 -2.75108 -3.35393 1.91548 -2.8353 -87.1295 -6.94668 -89.4489 0.0022532 0.000174222 2.7285 -11.4346 -1.11676 5.74375 -88.6778 0.420311 -87.7001 -120.391 84.6779 -150.397 -90 -3.50835e-015 -90 3.56175 10.1913 -3.69236 8.4637 20.4113 -2.97099 3.29909 -28.7794 16.6685 20.5087 -18.7111 -40.6137 -6.97153 2.41642 8.10778 -3.07122 -16.0355 -0.849375 17.2496 19.312 -4.7439 -62.3557 21.6765 -10.9469 0.916589 -0.73245 -9.06245 -89.263 -0.920119 -98.6376 -0.0049315 -0.00097932 12.9039 14.5002 1.5183 6.04481 
57.3554 82.6706 -2.85701 -3.49876 1.79667 -3.60651 -87.1852 -7.65879 -88.8059 0.0021859 0.000379564 1.74631 -11.529 -1.22103 6.20793 -88.7004 0.277772 -87.707 -119.865 84.7181 -150.639 -90 -3.50835e-015 -90 3.40974 10.0264 -2.45752 8.58988 20.4094 -3.01552 3.77508 -28.8801 17.011 20.9895 -19.0544 -40.3927 -7.42513 2.31591 8.06017 -2.75191 -16.0514 -0.761615 17.5197 19.4338 -4.42874 -61.8256 22.2472 -11.4609 0.879017 -1.03598 -9.02165 -88.3116 4.05722 -98.5711 -0.00531652 -0.000664917 15.1923 12.5475 1.05141 4.94433 
57.5471 82.6918 -2.92404 -3.61778 1.71916 -4.33088 -87.1867 -8.36759 -88.418 0.00212784 -0.000135881 1.28509 -11.4829 -1.22575 6.26376 -88.7193 0.196601 -87.7615 -119.995 84.8348 -150.348 -90 -3.50835e-015 -90 3.49985 9.53862 -1.14209 8.61277 20.3511 -3.01541 4.18436 -28.9083 17.1555 21.7529 -19.4873 -39.894 -7.75339 2.61509 7.86893 -2.39926 -16.2477 -0.671808 17.9336 19.713 -4.16931 -61.1058 22.4713 -11.9092 0.844761 -0.902492 -9.04787 -87.3292 8.24116 -98.1759 -0.00586731 0.000167582 16.9324 14.2228 1.18508 4.87402 
57.643 82.6721 -2.91838 -3.61314 1.55302 -5.08059 -87.2439 -8.93248 -88.0102 0.00207623 0.00043932 1.07681 -11.2425 -1.17554 6.1581 -88.7752 0.0975833 -87.8014 -119.219 84.9633 -150.929 -90 -3.50835e-015 -90 3.69301 8.82778 -0.0477475 8.54614 20.3183 -2.98696 4.36785 -28.8704 17.2586 22.2256 -19.7723 -39.6179 -7.83474 2.92542 7.75667 -2.27045 -16.4593 -0.643551 18.7565 19.9349 -4.07257 -60.8841 22.4039 -11.9822 0.840838 -0.490523 -9.04155 -86.5586 11.3649 -97.2261 -0.00616584 -0.00232488 17.3019 16.1064 1.51387 5.41577 
57.6542 82.6202 -2.8466 -3.44181 1.33394 -5.93529 -87.4011 -9.34713 -87.5649 0.00208983 0.000832852 0.998158 -10.896 -1.11986 6.07707 -88.9214 -0.0099457 -87.8379 -116.478 85.1682 -153.461 -90 -3.50835e-015 -90 4.04813 8.06238 0.711866 8.54934 20.346 -2.9921 4.50224 -28.6568 17.4557 22.3034 -19.8349 -39.5941 -7.72181 3.13579 7.57781 -2.25327 -16.5506 -0.642226 20.0402 20.0003 -4.22935 -61.4272 22.096 -11.5748 0.824273 -0.00694988 -8.99511 -86.2185 13.3993 -95.5786 -0.00588542 -0.000593502 15.4308 16.1894 1.71055 6.05873 
57.5658 82.5562 -2.74758 -3.18674 1.19945 -6.93155 -87.5915 -9.63209 -87.223 0.00204895 0.000321043 1.04012 -10.2834 -1.01988 5.90119 -89.1109 -0.111621 -87.9106 -112.883 85.462 -156.861 -90 -3.50835e-015 -90 4.61782 7.17614 1.23665 8.56057 20.3912 -3.00241 4.93951 -28.2346 17.7591 22.3509 -19.8785 -39.5869 -7.39682 3.38796 7.10811 -2.22192 -16.6151 -0.635658 21.4427 20.0136 -4.61671 -62.4138 21.4469 -10.8131 0.779563 0.537954 -9.0827 -86.2517 14.6466 -93.6441 -0.00511918 -0.00110944 11.8853 15.9124 1.89905 6.8219 
57.3832 82.5143 -2.6599 -3.01903 1.17573 -8.05261 -87.6719 -9.68147 -87.0225 0.0020003 0.000445724 1.21402 -9.21953 -0.852686 5.56995 -89.2508 -0.201109 -88.0161 -110.397 85.7636 -159.175 -90 -3.50835e-015 -90 5.35689 6.06211 1.63907 8.52949 20.4388 -2.99812 6.02449 -27.7734 18.1971 22.6743 -20.027 -39.3389 -7.11853 3.65449 6.33948 -2.12085 -16.812 -0.613773 22.837 19.9855 -5.22274 -63.4415 20.5034 -9.92845 0.677095 1.32329 -9.25265 -86.369 15.3234 -91.912 -0.00443977 -0.000823652 8.21316 16.8665 2.36664 7.93702 
